<svg height="16.000002" width="16.000002" xmlns="http://www.w3.org/2000/svg"><g stroke-width="22.406" transform="matrix(.04463099 0 0 .04463099 -.214229 -.17427)"><path d="m184.04532 362.4c-98.753089 0-179.24532-80.49109-179.24532-179.24532 0-98.754615 80.492162-179.25 179.24532-179.25 98.75458 0 179.25 80.495415 179.25 179.25 0 98.75421-80.49549 179.24532-179.25 179.24532zm0-40.74844c76.73347 0 138.50155-61.76397 138.50155-138.49688 0-76.7334-61.76815-138.501555-138.50155-138.501555-76.73156 0-138.496882 61.768185-138.496882 138.501555 0 76.73288 61.765252 138.49688 138.496882 138.49688z" fill="#231f20"/><path d="m239.226 305.4873 65.619-181.5993-5.3115-3.1245c-15.9375-14.3745-22.8135-23.4375-39.6885-30-25.9575-10.095-47.499 9.687-69.687 15.6255-34.092 9.123-65.4735 6.738-94.22355-12.324-3.0891-2.049-4.1502-4.0605-6.5625-6.876-20.3127 22.5015-36.0048 51.465-39.03345 84.9495-.0885.978.15285 1.53.3123 2.499 6.8754 5.625 56.3871 52.0998 125.4492 27.4125 27.9315-9.984 46.563 1.2495 70.626 16.2498 3.915 2.44095 3.675 2.4024 5.937 4.0623l-29.688 90 7.8135-2.1873z" fill="#ed1c24"/><path d="m217.6635 209.2365-39.156 108.15765c-1.9335.0796-3.033.0931-4.959-.0833-3.435-.31515-5.388-.74235-8.646-1.875l19.9485-59.0109-3.126-2.1879c-11.562-4.3746-16.7835-8.0994-32.1867-5.3121-32.8125 5.9373-75.7149-9.3972-91.7613-42.948-3.4371-7.188-5.34795-10.4895-6.501-17.7825-.4746-3.003-.6276-4.731-.6252-7.7715 31.55625 26.1255 63.46635 39.3498 107.0127 31.9395 20.4615-3.4815 33.5055-14.1825 52.812-6.5625 2.8905 1.1415 4.494 1.8885 7.188 3.4365" fill="#231f20"/></g></svg>